<?xml version="1.0" encoding="UTF-8" standalone="no"?>
<svg
   xmlns:dc="http://purl.org/dc/elements/1.1/"
   xmlns:cc="http://creativecommons.org/ns#"
   xmlns:rdf="http://www.w3.org/1999/02/22-rdf-syntax-ns#"
   xmlns:svg="http://www.w3.org/2000/svg"
   xmlns="http://www.w3.org/2000/svg"
   viewBox="0 0 1122.52 793.70135"
   height="793.70135"
   width="1122.52"
   xml:space="preserve"
   id="svg2"
   version="1.1"><metadata
     id="metadata8"><rdf:RDF><cc:Work
         rdf:about=""><dc:format>image/svg+xml</dc:format><dc:type
           rdf:resource="http://purl.org/dc/dcmitype/StillImage" /></cc:Work></rdf:RDF></metadata><defs
     id="defs6"><clipPath
       id="clipPath36"
       clipPathUnits="userSpaceOnUse"><path
         id="path34"
         d="M 0,595.276 H 841.89 V 0 H 0 Z" /></clipPath></defs><g
     transform="matrix(1.3333333,0,0,-1.3333333,0,793.70133)"
     id="g10"><text
       id="text14"
       style="font-variant:normal;font-weight:normal;font-stretch:condensed;font-size:148.6867981px;font-family:'Futura BdCn BT';-inkscape-font-specification:FuturaBT-BoldCondensed;writing-mode:lr-tb;fill:#1d1d1b;fill-opacity:1;fill-rule:nonzero;stroke:none"
       transform="matrix(1,0,0,-0.97410328,372.6836,310.7705)"><tspan
         id="tspan12"
         y="0"
         x="0 57.98785 128.01933 196.26657 271.05603">JESZY</tspan></text>
<text
       id="text20"
       style="font-variant:normal;font-weight:normal;font-stretch:normal;font-size:80.23940277px;font-family:'Road Rage';-inkscape-font-specification:RoadRage;writing-mode:lr-tb;fill:#1d1d1b;fill-opacity:1;fill-rule:nonzero;stroke:none"
       transform="matrix(1,0,0,-0.97409876,403.8418,236.7393)"><tspan
         id="tspan16"
         y="0"
         x="0">D</tspan><tspan
         id="tspan18"
         y="0"
         x="57.772369 108.52379 156.98839 182.02307 233.53677">ESING</tspan></text>
<g
       transform="translate(201.4004,392.778)"
       id="g22"><path
         id="path24"
         style="fill:#1d1d1b;fill-opacity:1;fill-rule:nonzero;stroke:none"
         d="M 0,0 V 21.624 H -52.743 V 1.081 0 -159.256 -180.88 H -29.008 0 v 21.624 h -29.008 l 0,159.256 z" /></g><g
       transform="translate(300.8989,414.5334)"
       id="g26"><path
         id="path28"
         style="fill:#1d1d1b;fill-opacity:1;fill-rule:nonzero;stroke:none"
         d="M 0,0 V -21.625 H 29.008 V -180.881 H 0 v -21.624 h 29.008 23.734 v 21.624 159.256 1.082 l 0,20.543 z" /></g><g
       id="g30"><g
         clip-path="url(#clipPath36)"
         id="g32"><g
           transform="translate(218.335,409.0144)"
           id="g38"><path
             id="path40"
             style="fill:#72c7d5;fill-opacity:1;fill-rule:nonzero;stroke:none"
             d="m 0,0 0.005,2.571 65.414,-0.005 -1.068,-111.434 -0.583,-26.396 c 0,-13.939 -3.152,-23.728 -10.567,-31.884 -7.663,-8.43 -21.215,-17.891 -38.919,-26.603 l -5.942,9.734 -3.545,5.398 c 13.299,6.653 22.336,13.131 28.766,18.976 6.117,5.561 9.639,7.601 10.445,24.643 v 23.932 l -1.079,97.686 H 0.008 Z" /></g></g></g></g></svg>