<?xml version="1.0" encoding="utf-8"?>
<!-- Generator: Adobe Illustrator 24.0.1, SVG Export Plug-In . SVG Version: 6.00 Build 0)  -->
<svg version="1.1" id="Réteg_1" xmlns="http://www.w3.org/2000/svg" xmlns:xlink="http://www.w3.org/1999/xlink" x="0px" y="0px"
	 viewBox="0 0 841.89 595.28" style="enable-background:new 0 0 841.89 595.28;" xml:space="preserve">
<style type="text/css">
	.st0{font-family:'FuturaBT-BoldCondensed';}
	.st1{font-size:125.1812px;}
	.st2{letter-spacing:8.35;}
	.st3{fill:#FFFFFF;}
	.st4{font-family:'RoadRage';}
	.st5{font-size:47.288px;}
	.st6{fill:#73C7D5;}
</style>
<text transform="matrix(0.7186 0 0 0.7 393.0184 221.4926)" class="st0 st1 st2">jeszy</text>
<text transform="matrix(1.0266 0 0 1 411.8692 266.2825)"><tspan x="0" y="0" class="st3 st4 st5">D</tspan><tspan x="34.05" y="0" class="st4 st5">ESING</tspan></text>
<polygon points="289.39,171.88 289.39,158.8 257.48,158.8 257.48,171.22 257.48,171.88 257.48,268.23 257.48,281.31 271.84,281.31 
	289.39,281.31 289.39,268.23 271.84,268.23 271.84,171.88 "/>
<polygon points="349.59,158.72 349.59,171.8 367.14,171.8 367.14,268.15 349.59,268.15 349.59,281.23 367.14,281.23 381.5,281.23 
	381.5,268.15 381.5,171.8 381.5,171.15 381.5,158.72 "/>
<g>
	<path class="st3" d="M299.64,162.06l0-1.56l39.58,0l-0.65,67.42l-0.35,15.97c0,8.43-1.91,14.36-6.39,19.29
		c-4.64,5.1-12.84,10.82-23.55,16.1l-3.59-5.89l-2.14-3.27c8.05-4.02,13.51-7.94,17.4-11.48c3.7-3.36,5.83-4.6,6.32-14.91v-14.48
		l-0.65-59.1h-25.97L299.64,162.06z"/>
</g>
<path class="st6" d="M301.41,165.39"/>
</svg>
